<?xml version="1.0" encoding="UTF-8"?>
<svg version="1.1" xmlns="http://www.w3.org/2000/svg" width="118" height="132">
<path d="M0 0 C7.37150838 0.76256983 7.37150838 0.76256983 10.8125 2.0625 C19.71054837 4.67957305 28.32330113 2.5439536 37 0 C35.3129997 4.69225767 32.90690248 8.87677371 30.4375 13.1875 C29.6233598 14.61829725 28.80954248 16.04927827 27.99609375 17.48046875 C27.63700928 18.10848389 27.2779248 18.73649902 26.90795898 19.38354492 C26.24047466 20.57187881 25.60953634 21.78092732 25 23 C27.97 23.33 30.94 23.66 34 24 C33.505 25.485 33.505 25.485 33 27 C29.37 27 25.74 27 22 27 C21.505 28.485 21.505 28.485 21 30 C24.3 30.33 27.6 30.66 31 31 C30.67 31.99 30.34 32.98 30 34 C25.71 34 21.42 34 17 34 C16.34 35.32 15.68 36.64 15 38 C13.54098224 39.72305642 12.03680019 41.40844395 10.5 43.0625 C8.09463269 45.65920335 5.96595796 48.05106306 4 51 C4.680625 50.690625 5.36125 50.38125 6.0625 50.0625 C14.33128674 47.07166224 22.61773672 47.33826142 30.921875 49.7578125 C33.53308413 50.06212635 34.78987311 49.34399608 37 48 C37 52.66485856 36.28526546 53.41112879 33.3125 56.8125 C32.62800781 57.62332031 31.94351563 58.43414062 31.23828125 59.26953125 C29 61 29 61 26.40234375 60.82421875 C24.679032 60.2329687 22.96222522 59.62262735 21.25 59 C10.21533069 55.60471714 -0.10248893 58.06605471 -11 61 C-10.40376648 58.08684835 -9.55339127 56.04333408 -7.85546875 53.609375 C-7.42556641 52.98160156 -6.99566406 52.35382813 -6.55273438 51.70703125 C-6.10220703 51.06121094 -5.65167969 50.41539063 -5.1875 49.75 C-1.64554478 44.66331541 1.32993683 39.60153113 4 34 C0.7 34 -2.6 34 -6 34 C-5.67 33.01 -5.34 32.02 -5 31 C-1.04 31 2.92 31 7 31 C7.33 29.68 7.66 28.36 8 27 C4.7 27 1.4 27 -2 27 C-1.67 26.01 -1.34 25.02 -1 24 C0.16015625 24.0309375 0.16015625 24.0309375 1.34375 24.0625 C7.31960426 23.94416625 11.17507707 23.6076875 15.5 19.25 C16.69928015 17.86083382 17.86952115 16.44570852 19 15 C19.825 14.01 20.65 13.02 21.5 12 C21.995 11.34 22.49 10.68 23 10 C22.01 10.33 21.02 10.66 20 11 C12.30534674 12.81501788 4.75089494 12.10727071 -3 11 C-5.32158065 11.34659295 -5.32158065 11.34659295 -7 12 C-6.38801624 8.56049636 -5.07941153 6.48435515 -2.9375 3.75 C-2.38964844 3.04359375 -1.84179688 2.3371875 -1.27734375 1.609375 C-0.85582031 1.07828125 -0.43429688 0.5471875 0 0 Z " fill="#000000" transform="translate(38,24)"/>
</svg>
